<svg xmlns="http://www.w3.org/2000/svg">
  <symbol id="icon-arrow" viewBox="0 0 24 24"><path d="M5 12h14M14 7l5 5-5 5"/></symbol>
  <symbol id="icon-arrow-up-right" viewBox="0 0 24 24"><path d="M7 17 17 7M8 7h9v9"/></symbol>
  <symbol id="icon-check" viewBox="0 0 24 24"><path d="m5 12 4 4L19 6"/></symbol>
  <symbol id="icon-shield" viewBox="0 0 24 24"><path d="M12 3 5 6v5c0 4.7 2.8 8.2 7 10 4.2-1.8 7-5.3 7-10V6l-7-3Z"/><path d="m9 12 2 2 4-4"/></symbol>
  <symbol id="icon-spark" viewBox="0 0 24 24"><path d="M12 2c.8 5.2 3.8 8.2 9 9-5.2.8-8.2 3.8-9 9-.8-5.2-3.8-8.2-9-9 5.2-.8 8.2-3.8 9-9Z"/></symbol>
  <symbol id="icon-layers" viewBox="0 0 24 24"><path d="m12 3 9 5-9 5-9-5 9-5Z"/><path d="m5 12-2 1 9 5 9-5-2-1M5 17l-2 1 9 5 9-5-2-1"/></symbol>
  <symbol id="icon-leaf" viewBox="0 0 24 24"><path d="M20.5 3.5C13 3.5 6 6 5 12.5c-.5 3.4 1.8 6 5.3 6 6.2 0 8.8-6.7 10.2-15Z"/><path d="M4 21c2.5-5.5 6.8-9.5 12.5-12"/></symbol>
  <symbol id="icon-compass" viewBox="0 0 24 24"><circle cx="12" cy="12" r="9"/><path d="m15.5 8.5-2 5-5 2 2-5 5-2Z"/></symbol>
  <symbol id="icon-plan" viewBox="0 0 24 24"><path d="M4 20V6l5-2 6 2 5-2v14l-5 2-6-2-5 2Z"/><path d="M9 4v14M15 6v14"/></symbol>
  <symbol id="icon-connect" viewBox="0 0 24 24"><circle cx="6" cy="12" r="3"/><circle cx="18" cy="6" r="3"/><circle cx="18" cy="18" r="3"/><path d="m8.7 10.6 6.6-3.2M8.7 13.4l6.6 3.2"/></symbol>
  <symbol id="icon-care" viewBox="0 0 24 24"><path d="M20 8.5c0 5.5-8 11-8 11s-8-5.5-8-11a4.5 4.5 0 0 1 8-2.8 4.5 4.5 0 0 1 8 2.8Z"/><path d="M8.5 11h2l1-2.5 1.5 5 1-2.5h2"/></symbol>
  <symbol id="icon-light" viewBox="0 0 24 24"><path d="M9 18h6M10 21h4M8.5 14.5A7 7 0 1 1 15.5 14.5c-.9.7-1.5 1.7-1.5 2.5h-4c0-.8-.6-1.8-1.5-2.5Z"/></symbol>
  <symbol id="icon-climate" viewBox="0 0 24 24"><path d="M14 14.8V5a3 3 0 0 0-6 0v9.8a5 5 0 1 0 6 0Z"/><path d="M11 8v8"/></symbol>
  <symbol id="icon-lock" viewBox="0 0 24 24"><rect x="5" y="10" width="14" height="11" rx="2"/><path d="M8 10V7a4 4 0 0 1 8 0v3M12 14v3"/></symbol>
  <symbol id="icon-chevron" viewBox="0 0 24 24"><path d="m8 10 4 4 4-4"/></symbol>
  <symbol id="icon-menu" viewBox="0 0 24 24"><path d="M4 7h16M4 12h16M4 17h16"/></symbol>
  <symbol id="icon-close" viewBox="0 0 24 24"><path d="m6 6 12 12M18 6 6 18"/></symbol>
  <symbol id="icon-clock" viewBox="0 0 24 24"><circle cx="12" cy="12" r="9"/><path d="M12 7v5l3 2"/></symbol>
  <symbol id="icon-instagram" viewBox="0 0 24 24"><rect x="3" y="3" width="18" height="18" rx="5"/><circle cx="12" cy="12" r="4"/><path d="M17.5 6.5h.01"/></symbol>
</svg>
